

<svg version="1.2" baseProfile="tiny" id="Layer_1" xmlns="http://www.w3.org/2000/svg" xmlns:xlink="http://www.w3.org/1999/xlink"
	 x="0px" y="0px" viewBox="0 0 5000 4000" xml:space="preserve">
<g>
	<path fill="#ffffff" d="M2937.14,2592c-1.43,0.43-2.99,0.71-4.42,1H1836.26v-0.14h-14.39v-208.41
		c117.95,0.29,235.9,1.14,353.71,3.7c11.4,0.29,21.51-0.14,30.63-1.14h58.98v-139.6h227.92v139.6h64.53c16.81,0.85,37.32,1,62.68,1
		c80.77,0.29,161.54,2.56,242.17,0.14c64.53-1.99,106.13-44.45,103.56-102.42c-2.71-61.68-38.04-99.15-98.86-99.57
		c-21.37-0.14-42.88-0.29-64.25-0.43h-552V1868.2h-0.57c0.85-105.56,2.14-207.98-2.85-309.98c-2.85-56.27-52.85-84.19-108.69-80.49
		c-64.67,4.13-98.15,46.58-99.72,108.83c-2.28,85.33,1.28,170.8,2.14,256.27c0.28,25.5,0,51,0,479.5h-217.67
		c2.56-446.02,0.57-494.17-1.71-542.17v-208.98c3.99-36.61,10.97-73.08,23.22-109.26c47.44-140.32,200.29-222.08,348.72-200.43
		c146.01,21.37,262.54,139.03,272.65,286.47c8.26,120.66,8.41,242.03,7.83,362.97c-0.14,49.43,15.81,66.38,65.67,65.53
		c113.96-1.99,228.07-3.28,341.74,3.13c163.25,9.26,281.77,130.63,295.45,293.31C3189.13,2416.93,3087.57,2554.82,2937.14,2592z"/>
</g>
</svg>
