<?xml version="1.0" encoding="utf-8"?>
<!-- Generator: Adobe Illustrator 19.0.0, SVG Export Plug-In . SVG Version: 6.00 Build 0)  -->
<svg version="1.1" id="Layer_1" xmlns="http://www.w3.org/2000/svg" xmlns:xlink="http://www.w3.org/1999/xlink" x="0px" y="0px"
	 viewBox="2194 -1604 5000 4000" style="enable-background:new 2194 -1604 5000 4000;" xml:space="preserve">
<style type="text/css">
	.st0{fill:#FFFFFF;}
</style>
<g>
	<path class="st0" d="M4009.3,718.3l-2.7-542.2v-209c4-36.6,11-73.1,23.2-109.3c47.4-140.3,200.3-222.1,348.7-200.4
		c146,21.4,262.5,139,272.6,286.5c8.3,120.7,8.4,242,7.8,363c-0.1,49.4,15.8,66.4,65.7,65.5c114-2,228.1-3.3,341.7,3.1
		c163.3,9.3,281.8,130.6,295.5,293.3c12,144-89.6,281.9-240,319.1c-1.4,0.4-3,0.7-4.4,1H4024v-0.1h-14.4V780.5L4009.3,718.3z"/>
</g>
</svg>
