<svg width="656" height="564" viewBox="0 0 656 564" fill="none" xmlns="http://www.w3.org/2000/svg">
<rect x="255.991" y="431.872" width="143.872" height="121.192" rx="9.68876" fill="white" stroke="#0081FE" stroke-width="1.31373"/>
<rect x="310.074" y="545.182" width="35.6349" height="17.0785" rx="8.53925" fill="white" stroke="#0081FE" stroke-width="1.31373"/>
<circle cx="327.928" cy="484.141" r="32.1043" fill="#DFECFA" fill-opacity="0.941176"/>
<circle cx="327.863" cy="475.601" r="9.44244" fill="#0081FE"/>
<path d="M312.572 501.36C312.675 497.483 314.29 492.942 317.077 490.222C319.865 487.501 323.608 485.957 327.522 485.913C331.436 485.869 335.215 487.329 338.067 489.985C340.919 492.642 342.621 497.487 342.817 501.36L327.695 501.36L312.572 501.36Z" fill="#0081FE"/>
<path d="M275.806 528.555L277.279 528.412C277.367 528.906 277.546 529.269 277.816 529.501C278.088 529.733 278.455 529.849 278.915 529.849C279.402 529.849 279.769 529.747 280.014 529.542C280.263 529.334 280.388 529.092 280.388 528.816C280.388 528.639 280.335 528.489 280.229 528.366C280.127 528.24 279.946 528.131 279.687 528.039C279.51 527.977 279.106 527.868 278.475 527.711C277.664 527.51 277.095 527.263 276.767 526.97C276.307 526.558 276.077 526.055 276.077 525.462C276.077 525.08 276.184 524.724 276.399 524.393C276.617 524.059 276.929 523.805 277.335 523.631C277.744 523.457 278.237 523.37 278.813 523.37C279.753 523.37 280.461 523.577 280.935 523.989C281.412 524.402 281.662 524.952 281.686 525.641L280.173 525.707C280.108 525.322 279.968 525.046 279.753 524.879C279.542 524.708 279.223 524.623 278.797 524.623C278.358 524.623 278.013 524.713 277.764 524.894C277.604 525.01 277.524 525.165 277.524 525.359C277.524 525.537 277.599 525.688 277.749 525.814C277.94 525.975 278.404 526.142 279.14 526.316C279.876 526.489 280.42 526.67 280.771 526.858C281.126 527.042 281.402 527.296 281.599 527.619C281.8 527.94 281.901 528.337 281.901 528.811C281.901 529.24 281.782 529.643 281.543 530.018C281.304 530.392 280.967 530.672 280.531 530.856C280.094 531.037 279.551 531.127 278.9 531.127C277.952 531.127 277.224 530.909 276.716 530.473C276.208 530.033 275.905 529.394 275.806 528.555ZM284.596 523.498V526.254C285.059 525.712 285.613 525.441 286.257 525.441C286.588 525.441 286.886 525.503 287.152 525.625C287.418 525.748 287.618 525.905 287.75 526.096C287.887 526.287 287.979 526.498 288.027 526.73C288.078 526.962 288.103 527.321 288.103 527.809V530.994H286.666V528.126C286.666 527.556 286.639 527.195 286.585 527.042C286.53 526.888 286.433 526.767 286.293 526.679C286.157 526.587 285.985 526.541 285.777 526.541C285.538 526.541 285.325 526.599 285.138 526.714C284.95 526.83 284.812 527.006 284.723 527.241C284.638 527.473 284.596 527.817 284.596 528.274V530.994H283.159V523.498H284.596ZM292.71 529.266L294.142 529.506C293.958 530.031 293.666 530.432 293.268 530.708C292.872 530.981 292.376 531.117 291.78 531.117C290.835 531.117 290.137 530.808 289.683 530.191C289.325 529.697 289.146 529.073 289.146 528.32C289.146 527.42 289.382 526.716 289.852 526.208C290.322 525.697 290.917 525.441 291.637 525.441C292.444 525.441 293.082 525.709 293.549 526.244C294.016 526.776 294.239 527.592 294.219 528.693H290.619C290.629 529.119 290.745 529.452 290.967 529.69C291.188 529.925 291.464 530.043 291.795 530.043C292.02 530.043 292.209 529.982 292.363 529.859C292.516 529.736 292.632 529.539 292.71 529.266ZM292.792 527.814C292.782 527.398 292.674 527.083 292.47 526.868C292.265 526.65 292.017 526.541 291.723 526.541C291.41 526.541 291.151 526.655 290.946 526.883C290.742 527.112 290.641 527.422 290.645 527.814H292.792ZM298.539 529.266L299.971 529.506C299.787 530.031 299.495 530.432 299.097 530.708C298.701 530.981 298.205 531.117 297.609 531.117C296.664 531.117 295.966 530.808 295.512 530.191C295.154 529.697 294.975 529.073 294.975 528.32C294.975 527.42 295.211 526.716 295.681 526.208C296.151 525.697 296.746 525.441 297.466 525.441C298.273 525.441 298.911 525.709 299.378 526.244C299.845 526.776 300.068 527.592 300.048 528.693H296.448C296.458 529.119 296.574 529.452 296.796 529.69C297.017 529.925 297.293 530.043 297.624 530.043C297.849 530.043 298.038 529.982 298.192 529.859C298.345 529.736 298.461 529.539 298.539 529.266ZM298.621 527.814C298.611 527.398 298.504 527.083 298.299 526.868C298.094 526.65 297.846 526.541 297.552 526.541C297.239 526.541 296.98 526.655 296.775 526.883C296.571 527.112 296.47 527.422 296.474 527.814H298.621ZM303.714 525.564V526.709H302.732V528.898C302.732 529.341 302.741 529.6 302.758 529.675C302.778 529.747 302.821 529.806 302.886 529.854C302.954 529.902 303.035 529.925 303.131 529.925C303.264 529.925 303.456 529.879 303.709 529.787L303.831 530.902C303.497 531.045 303.119 531.117 302.696 531.117C302.437 531.117 302.204 531.074 301.996 530.989C301.788 530.9 301.634 530.788 301.536 530.652C301.44 530.512 301.374 530.324 301.336 530.089C301.306 529.922 301.29 529.585 301.29 529.077V526.709H300.631V525.564H301.29V524.485L302.732 523.647V525.564H303.714ZM311.123 528.238V526.975H314.385V529.961C314.068 530.268 313.608 530.539 313.004 530.774C312.405 531.006 311.796 531.122 311.179 531.122C310.395 531.122 309.712 530.958 309.129 530.631C308.546 530.3 308.108 529.83 307.815 529.22C307.521 528.606 307.375 527.94 307.375 527.221C307.375 526.44 307.538 525.746 307.866 525.14C308.193 524.533 308.672 524.067 309.303 523.744C309.783 523.495 310.381 523.37 311.097 523.37C312.028 523.37 312.754 523.566 313.275 523.958C313.8 524.347 314.138 524.886 314.288 525.574L312.785 525.855C312.679 525.487 312.48 525.198 312.186 524.986C311.897 524.771 311.534 524.664 311.097 524.664C310.436 524.664 309.909 524.874 309.517 525.293C309.129 525.712 308.934 526.334 308.934 527.159C308.934 528.049 309.132 528.717 309.528 529.164C309.923 529.607 310.441 529.828 311.082 529.828C311.399 529.828 311.716 529.767 312.033 529.644C312.353 529.518 312.628 529.366 312.856 529.189V528.238H311.123ZM315.776 530.994V523.498H317.213V530.994H315.776ZM319.764 527.221L318.46 526.985C318.607 526.46 318.859 526.072 319.217 525.82C319.575 525.567 320.107 525.441 320.812 525.441C321.453 525.441 321.93 525.518 322.244 525.671C322.558 525.821 322.777 526.014 322.904 526.249C323.033 526.481 323.098 526.909 323.098 527.533L323.083 529.21C323.083 529.687 323.105 530.04 323.149 530.268C323.197 530.493 323.284 530.735 323.41 530.994H321.988C321.951 530.899 321.905 530.757 321.85 530.57C321.826 530.485 321.809 530.428 321.799 530.401C321.554 530.64 321.291 530.819 321.012 530.938C320.732 531.057 320.434 531.117 320.117 531.117C319.558 531.117 319.116 530.965 318.793 530.662C318.472 530.358 318.312 529.975 318.312 529.511C318.312 529.205 318.385 528.932 318.532 528.693C318.678 528.451 318.883 528.267 319.145 528.141C319.411 528.011 319.793 527.899 320.291 527.804C320.962 527.677 321.428 527.56 321.687 527.451V527.308C321.687 527.031 321.618 526.835 321.482 526.72C321.346 526.6 321.088 526.541 320.71 526.541C320.454 526.541 320.255 526.592 320.112 526.694C319.969 526.793 319.853 526.968 319.764 527.221ZM321.687 528.386C321.503 528.448 321.211 528.521 320.812 528.606C320.413 528.692 320.153 528.775 320.03 528.857C319.843 528.99 319.749 529.159 319.749 529.363C319.749 529.564 319.824 529.738 319.974 529.885C320.124 530.031 320.315 530.104 320.546 530.104C320.805 530.104 321.053 530.019 321.288 529.849C321.462 529.719 321.576 529.561 321.63 529.373C321.668 529.251 321.687 529.017 321.687 528.673V528.386ZM324.013 529.445L325.455 529.225C325.516 529.505 325.641 529.718 325.828 529.864C326.016 530.007 326.278 530.079 326.616 530.079C326.987 530.079 327.267 530.011 327.454 529.874C327.58 529.779 327.644 529.651 327.644 529.491C327.644 529.382 327.609 529.291 327.541 529.22C327.47 529.152 327.309 529.089 327.061 529.031C325.902 528.775 325.167 528.542 324.857 528.33C324.427 528.037 324.213 527.63 324.213 527.108C324.213 526.638 324.398 526.242 324.77 525.922C325.141 525.601 325.718 525.441 326.498 525.441C327.241 525.441 327.793 525.562 328.155 525.804C328.516 526.046 328.765 526.404 328.901 526.878L327.546 527.129C327.488 526.917 327.378 526.755 327.214 526.643C327.054 526.53 326.824 526.474 326.524 526.474C326.145 526.474 325.874 526.527 325.711 526.633C325.602 526.708 325.547 526.805 325.547 526.924C325.547 527.026 325.595 527.113 325.69 527.185C325.82 527.28 326.266 527.415 327.03 527.589C327.797 527.763 328.332 527.976 328.635 528.228C328.935 528.484 329.085 528.84 329.085 529.297C329.085 529.794 328.877 530.222 328.462 530.58C328.046 530.938 327.43 531.117 326.616 531.117C325.876 531.117 325.29 530.967 324.857 530.667C324.427 530.367 324.146 529.96 324.013 529.445ZM329.842 529.445L331.284 529.225C331.345 529.505 331.47 529.718 331.657 529.864C331.845 530.007 332.107 530.079 332.445 530.079C332.816 530.079 333.096 530.011 333.283 529.874C333.409 529.779 333.473 529.651 333.473 529.491C333.473 529.382 333.438 529.291 333.37 529.22C333.299 529.152 333.138 529.089 332.89 529.031C331.731 528.775 330.996 528.542 330.686 528.33C330.256 528.037 330.042 527.63 330.042 527.108C330.042 526.638 330.227 526.242 330.599 525.922C330.97 525.601 331.547 525.441 332.327 525.441C333.07 525.441 333.623 525.562 333.984 525.804C334.345 526.046 334.594 526.404 334.73 526.878L333.375 527.129C333.317 526.917 333.207 526.755 333.043 526.643C332.883 526.53 332.653 526.474 332.353 526.474C331.974 526.474 331.703 526.527 331.54 526.633C331.431 526.708 331.376 526.805 331.376 526.924C331.376 527.026 331.424 527.113 331.519 527.185C331.649 527.28 332.095 527.415 332.859 527.589C333.626 527.763 334.161 527.976 334.464 528.228C334.764 528.484 334.914 528.84 334.914 529.297C334.914 529.794 334.707 530.222 334.291 530.58C333.875 530.938 333.259 531.117 332.445 531.117C331.705 531.117 331.119 530.967 330.686 530.667C330.256 530.367 329.975 529.96 329.842 529.445ZM338.719 528.555L340.191 528.412C340.28 528.906 340.459 529.269 340.728 529.501C341.001 529.733 341.367 529.849 341.827 529.849C342.315 529.849 342.681 529.747 342.927 529.542C343.176 529.334 343.3 529.092 343.3 528.816C343.3 528.639 343.247 528.489 343.142 528.366C343.039 528.24 342.859 528.131 342.6 528.039C342.422 527.977 342.018 527.868 341.388 527.711C340.576 527.51 340.007 527.263 339.68 526.97C339.22 526.558 338.99 526.055 338.99 525.462C338.99 525.08 339.097 524.724 339.312 524.393C339.53 524.059 339.842 523.805 340.247 523.631C340.657 523.457 341.149 523.37 341.725 523.37C342.666 523.37 343.373 523.577 343.847 523.989C344.324 524.402 344.575 524.952 344.599 525.641L343.085 525.707C343.021 525.322 342.881 525.046 342.666 524.879C342.455 524.708 342.136 524.623 341.71 524.623C341.27 524.623 340.926 524.713 340.677 524.894C340.517 525.01 340.437 525.165 340.437 525.359C340.437 525.537 340.512 525.688 340.662 525.814C340.853 525.975 341.316 526.142 342.052 526.316C342.789 526.489 343.332 526.67 343.684 526.858C344.038 527.042 344.314 527.296 344.512 527.619C344.713 527.94 344.814 528.337 344.814 528.811C344.814 529.24 344.694 529.643 344.456 530.018C344.217 530.392 343.88 530.672 343.443 530.856C343.007 531.037 342.463 531.127 341.812 531.127C340.864 531.127 340.137 530.909 339.629 530.473C339.121 530.033 338.818 529.394 338.719 528.555ZM349.651 530.994V530.181C349.453 530.471 349.192 530.699 348.868 530.866C348.548 531.033 348.209 531.117 347.851 531.117C347.486 531.117 347.159 531.037 346.869 530.877C346.579 530.716 346.37 530.491 346.24 530.202C346.111 529.912 346.046 529.511 346.046 529V525.564H347.483V528.059C347.483 528.823 347.508 529.291 347.559 529.465C347.614 529.636 347.711 529.772 347.851 529.874C347.991 529.973 348.168 530.023 348.383 530.023C348.628 530.023 348.848 529.956 349.042 529.823C349.236 529.687 349.369 529.52 349.441 529.322C349.513 529.121 349.548 528.632 349.548 527.855V525.564H350.985V530.994H349.651ZM352.437 525.564H353.777V526.362C353.951 526.089 354.186 525.867 354.483 525.697C354.779 525.526 355.108 525.441 355.469 525.441C356.1 525.441 356.635 525.688 357.075 526.183C357.515 526.677 357.735 527.365 357.735 528.248C357.735 529.155 357.513 529.861 357.07 530.365C356.627 530.866 356.09 531.117 355.459 531.117C355.159 531.117 354.887 531.057 354.641 530.938C354.399 530.819 354.143 530.614 353.874 530.324V533.06H352.437V525.564ZM353.859 528.187C353.859 528.797 353.98 529.249 354.222 529.542C354.464 529.832 354.759 529.977 355.106 529.977C355.44 529.977 355.718 529.844 355.94 529.578C356.161 529.308 356.272 528.869 356.272 528.259C356.272 527.689 356.158 527.267 355.93 526.991C355.701 526.714 355.418 526.576 355.081 526.576C354.73 526.576 354.438 526.713 354.206 526.985C353.975 527.255 353.859 527.655 353.859 528.187ZM358.839 525.564H360.179V526.362C360.353 526.089 360.588 525.867 360.884 525.697C361.181 525.526 361.51 525.441 361.871 525.441C362.502 525.441 363.037 525.688 363.477 526.183C363.916 526.677 364.136 527.365 364.136 528.248C364.136 529.155 363.915 529.861 363.472 530.365C363.028 530.866 362.492 531.117 361.861 531.117C361.561 531.117 361.288 531.057 361.043 530.938C360.801 530.819 360.545 530.614 360.276 530.324V533.06H358.839V525.564ZM360.26 528.187C360.26 528.797 360.381 529.249 360.624 529.542C360.866 529.832 361.16 529.977 361.508 529.977C361.842 529.977 362.12 529.844 362.342 529.578C362.563 529.308 362.674 528.869 362.674 528.259C362.674 527.689 362.56 527.267 362.331 526.991C362.103 526.714 361.82 526.576 361.483 526.576C361.131 526.576 360.84 526.713 360.608 526.985C360.376 527.255 360.26 527.655 360.26 528.187ZM365.282 530.994V523.498H366.718V530.994H365.282ZM368.196 524.828V523.498H369.633V524.828H368.196ZM368.196 530.994V525.564H369.633V530.994H368.196ZM374.255 529.266L375.687 529.506C375.503 530.031 375.211 530.432 374.813 530.708C374.417 530.981 373.921 531.117 373.325 531.117C372.38 531.117 371.682 530.808 371.228 530.191C370.87 529.697 370.691 529.073 370.691 528.32C370.691 527.42 370.927 526.716 371.397 526.208C371.867 525.697 372.462 525.441 373.181 525.441C373.989 525.441 374.627 525.709 375.094 526.244C375.561 526.776 375.784 527.592 375.764 528.693H372.164C372.174 529.119 372.29 529.452 372.512 529.69C372.733 529.925 373.009 530.043 373.34 530.043C373.565 530.043 373.754 529.982 373.908 529.859C374.061 529.736 374.177 529.539 374.255 529.266ZM374.337 527.814C374.327 527.398 374.219 527.083 374.015 526.868C373.81 526.65 373.562 526.541 373.268 526.541C372.955 526.541 372.696 526.655 372.491 526.883C372.287 527.112 372.186 527.422 372.19 527.814H374.337ZM378.315 530.994H376.878V525.564H378.213V526.336C378.441 525.971 378.646 525.731 378.826 525.615C379.01 525.499 379.218 525.441 379.45 525.441C379.777 525.441 380.093 525.532 380.396 525.712L379.951 526.965C379.709 526.808 379.484 526.73 379.276 526.73C379.075 526.73 378.905 526.786 378.765 526.898C378.625 527.008 378.515 527.207 378.433 527.497C378.354 527.786 378.315 528.393 378.315 529.317V530.994Z" fill="#060618"/>
<rect x="255.991" y="188.358" width="143.872" height="121.192" rx="9.68876" fill="white" stroke="#0081FE" stroke-width="1.31373"/>
<rect x="310.074" y="301.667" width="35.6349" height="17.0785" rx="8.53925" fill="white" stroke="#0081FE" stroke-width="1.31373"/>
<circle cx="328.071" cy="240.63" r="32.1043" fill="white" fill-opacity="0.941176"/>
<g clip-path="url(#clip0_276_2948)">
<path d="M327.84 225.309L314.163 238.985H341.514L327.84 225.309Z" fill="#0075C9"/>
<path d="M327.92 212.162L328.045 212.287L328.134 212.197L359.832 243.895C359.936 242.845 359.991 241.78 359.991 240.702C359.991 223.074 345.698 208.781 328.068 208.781C310.437 208.781 296.147 223.074 296.147 240.702C296.147 241.743 296.2 242.77 296.298 243.785L327.92 212.162Z" fill="#0075C9"/>
<path d="M351.365 248.838H333.347V272.189C343.787 270.451 352.513 263.648 356.915 254.388L351.365 248.838Z" fill="#0075C9"/>
<path d="M323.499 248.837H304.313L299.075 254.072C303.523 263.702 312.625 270.736 323.499 272.295V248.834V248.837Z" fill="#0075C9"/>
</g>
<path d="M319.093 287.482H317.446L316.792 285.78H313.796L313.177 287.482H311.571L314.491 279.987H316.091L319.093 287.482ZM316.306 284.517L315.273 281.735L314.261 284.517H316.306ZM319.89 287.482V279.987H321.327V287.482H319.89ZM326.379 287.482V286.669C326.181 286.959 325.921 287.188 325.597 287.355C325.276 287.522 324.937 287.605 324.579 287.605C324.214 287.605 323.887 287.525 323.597 287.365C323.308 287.205 323.098 286.98 322.969 286.69C322.839 286.4 322.774 286 322.774 285.488V282.052H324.211V284.547C324.211 285.311 324.237 285.78 324.288 285.954C324.342 286.124 324.439 286.26 324.579 286.363C324.719 286.461 324.896 286.511 325.111 286.511C325.356 286.511 325.576 286.444 325.771 286.312C325.965 286.175 326.098 286.008 326.169 285.81C326.241 285.609 326.277 285.12 326.277 284.343V282.052H327.714V287.482H326.379ZM331.697 282.052V283.198H330.715V285.386C330.715 285.829 330.724 286.088 330.741 286.163C330.761 286.235 330.804 286.294 330.868 286.342C330.937 286.39 331.018 286.414 331.114 286.414C331.247 286.414 331.439 286.368 331.692 286.276L331.814 287.39C331.48 287.534 331.102 287.605 330.679 287.605C330.42 287.605 330.187 287.563 329.979 287.477C329.771 287.389 329.617 287.276 329.519 287.14C329.423 287 329.357 286.813 329.319 286.577C329.288 286.41 329.273 286.073 329.273 285.565V283.198H328.614V282.052H329.273V280.973L330.715 280.135V282.052H331.697ZM335.838 285.754L337.27 285.994C337.086 286.519 336.795 286.92 336.396 287.196C336 287.469 335.504 287.605 334.908 287.605C333.964 287.605 333.265 287.297 332.811 286.68C332.454 286.185 332.275 285.562 332.275 284.808C332.275 283.908 332.51 283.204 332.98 282.696C333.451 282.185 334.045 281.93 334.765 281.93C335.573 281.93 336.21 282.197 336.677 282.732C337.144 283.264 337.367 284.08 337.347 285.181H333.747C333.757 285.608 333.873 285.94 334.095 286.179C334.316 286.414 334.593 286.531 334.923 286.531C335.148 286.531 335.337 286.47 335.491 286.347C335.644 286.225 335.76 286.027 335.838 285.754ZM335.92 284.302C335.91 283.886 335.803 283.571 335.598 283.356C335.394 283.138 335.145 283.029 334.852 283.029C334.538 283.029 334.279 283.143 334.074 283.371C333.87 283.6 333.769 283.91 333.773 284.302H335.92ZM343.258 283.658L341.841 283.913C341.794 283.63 341.684 283.417 341.514 283.274C341.347 283.131 341.129 283.06 340.86 283.06C340.502 283.06 340.215 283.184 340.001 283.433C339.789 283.678 339.684 284.091 339.684 284.67C339.684 285.314 339.791 285.77 340.006 286.035C340.224 286.301 340.515 286.434 340.88 286.434C341.153 286.434 341.376 286.358 341.55 286.204C341.724 286.047 341.846 285.78 341.918 285.401L343.329 285.642C343.183 286.289 342.901 286.779 342.486 287.109C342.07 287.44 341.512 287.605 340.814 287.605C340.019 287.605 339.385 287.355 338.911 286.854C338.441 286.352 338.206 285.659 338.206 284.772C338.206 283.876 338.443 283.179 338.917 282.681C339.39 282.18 340.031 281.93 340.839 281.93C341.5 281.93 342.025 282.073 342.414 282.359C342.806 282.642 343.087 283.075 343.258 283.658Z" fill="#060618"/>
<rect x="255.991" y="0.656865" width="143.872" height="121.192" rx="9.68876" fill="white" stroke="#0081FE" stroke-width="1.31373"/>
<rect x="310.074" y="113.967" width="35.6349" height="17.0785" rx="8.53925" fill="white" stroke="#0081FE" stroke-width="1.31373"/>
<circle cx="327.928" cy="52.9265" r="32.1043" fill="#DFECFA" fill-opacity="0.941176"/>
<circle cx="327.864" cy="44.3877" r="9.44244" fill="#0081FE"/>
<path d="M312.573 70.1466C312.676 66.2706 314.291 61.7293 317.078 59.0089C319.866 56.2885 323.609 54.7441 327.523 54.7001C331.436 54.656 335.216 56.1156 338.068 58.7726C340.92 61.4295 342.622 66.274 342.818 70.1466L327.696 70.1466L312.573 70.1466Z" fill="#0081FE"/>
<path d="M318.487 97.0233L319.954 97.4886C319.729 98.3067 319.354 98.9152 318.829 99.314C318.308 99.7094 317.645 99.9071 316.84 99.9071C315.845 99.9071 315.027 99.568 314.386 98.8896C313.745 98.2078 313.425 97.2772 313.425 96.0978C313.425 94.8502 313.747 93.8821 314.391 93.1935C315.035 92.5015 315.882 92.1555 316.932 92.1555C317.849 92.1555 318.594 92.4265 319.167 92.9685C319.508 93.289 319.763 93.7492 319.934 94.3491L318.436 94.707C318.347 94.3184 318.161 94.0116 317.878 93.7867C317.599 93.5617 317.258 93.4492 316.856 93.4492C316.3 93.4492 315.848 93.6486 315.501 94.0474C315.156 94.4463 314.984 95.0922 314.984 95.9853C314.984 96.933 315.155 97.6079 315.496 98.0101C315.836 98.4124 316.28 98.6135 316.825 98.6135C317.227 98.6135 317.573 98.4857 317.863 98.23C318.153 97.9743 318.361 97.5721 318.487 97.0233ZM321.248 99.7793V92.2834H322.685V99.7793H321.248ZM324.162 93.6128V92.2834H325.599V93.6128H324.162ZM324.162 99.7793V94.3491H325.599V99.7793H324.162ZM330.221 98.051L331.653 98.2914C331.469 98.8163 331.178 99.2168 330.779 99.493C330.383 99.7657 329.887 99.902 329.291 99.902C328.347 99.902 327.648 99.5935 327.194 98.9765C326.837 98.4823 326.658 97.8584 326.658 97.1051C326.658 96.2052 326.893 95.5013 327.363 94.9934C327.834 94.482 328.428 94.2264 329.148 94.2264C329.956 94.2264 330.593 94.494 331.06 95.0292C331.527 95.5609 331.75 96.3773 331.73 97.4784H328.13C328.14 97.9045 328.256 98.2368 328.478 98.4754C328.699 98.7106 328.976 98.8282 329.306 98.8282C329.531 98.8282 329.72 98.7669 329.874 98.6442C330.027 98.5215 330.143 98.3237 330.221 98.051ZM330.303 96.5989C330.293 96.183 330.186 95.8677 329.981 95.653C329.777 95.4348 329.528 95.3257 329.235 95.3257C328.921 95.3257 328.662 95.4399 328.457 95.6683C328.253 95.8967 328.152 96.2069 328.156 96.5989H330.303ZM337.845 99.7793H336.408V97.008C336.408 96.4216 336.378 96.0433 336.316 95.8728C336.255 95.699 336.154 95.5643 336.015 95.4689C335.878 95.3734 335.713 95.3257 335.519 95.3257C335.27 95.3257 335.047 95.3939 334.849 95.5302C334.651 95.6666 334.515 95.8473 334.44 96.0722C334.368 96.2972 334.332 96.7131 334.332 97.3199V99.7793H332.896V94.3491H334.23V95.1468C334.704 94.5332 335.301 94.2264 336.02 94.2264C336.337 94.2264 336.627 94.2843 336.889 94.4002C337.152 94.5127 337.349 94.6576 337.482 94.8349C337.619 95.0121 337.712 95.2132 337.763 95.4382C337.818 95.6632 337.845 95.9853 337.845 96.4046V99.7793ZM341.798 94.3491V95.4945H340.816V97.6829C340.816 98.126 340.825 98.3851 340.842 98.4601C340.862 98.5317 340.905 98.5913 340.969 98.6391C341.038 98.6868 341.119 98.7106 341.215 98.7106C341.348 98.7106 341.54 98.6646 341.793 98.5726L341.915 99.6873C341.581 99.8304 341.203 99.902 340.78 99.902C340.521 99.902 340.288 99.8594 340.08 99.7742C339.872 99.6856 339.718 99.5731 339.619 99.4367C339.524 99.297 339.458 99.1095 339.42 98.8743C339.389 98.7072 339.374 98.3698 339.374 97.8619V95.4945H338.714V94.3491H339.374V93.2702L340.816 92.4317V94.3491H341.798Z" fill="#060618"/>
<rect x="511.368" y="431.872" width="143.872" height="121.192" rx="9.68876" fill="white" stroke="#0081FE" stroke-width="1.31373"/>
<rect x="565.451" y="545.182" width="35.6349" height="17.0785" rx="8.53925" fill="white" stroke="#0081FE" stroke-width="1.31373"/>
<circle cx="583.303" cy="484.141" r="32.1043" fill="#DFECFA" fill-opacity="0.941176"/>
<circle cx="583.24" cy="475.601" r="9.44244" fill="#0081FE"/>
<path d="M567.949 501.36C568.052 497.483 569.667 492.942 572.454 490.222C575.242 487.501 578.985 485.957 582.899 485.913C586.812 485.869 590.592 487.329 593.444 489.985C596.296 492.642 597.998 497.487 598.194 501.36L583.072 501.36L567.949 501.36Z" fill="#0081FE"/>
<path d="M560.682 528.555L562.155 528.412C562.243 528.906 562.422 529.269 562.692 529.501C562.964 529.733 563.331 529.849 563.791 529.849C564.278 529.849 564.645 529.747 564.89 529.542C565.139 529.334 565.263 529.092 565.263 528.816C565.263 528.639 565.211 528.489 565.105 528.366C565.003 528.24 564.822 528.131 564.563 528.039C564.386 527.977 563.982 527.868 563.351 527.711C562.54 527.51 561.971 527.263 561.643 526.97C561.183 526.558 560.953 526.055 560.953 525.462C560.953 525.08 561.06 524.724 561.275 524.393C561.493 524.059 561.805 523.805 562.211 523.631C562.62 523.457 563.113 523.37 563.689 523.37C564.629 523.37 565.337 523.577 565.811 523.989C566.288 524.402 566.538 524.952 566.562 525.641L565.049 525.707C564.984 525.322 564.844 525.046 564.629 524.879C564.418 524.708 564.099 524.623 563.673 524.623C563.234 524.623 562.889 524.713 562.64 524.894C562.48 525.01 562.4 525.165 562.4 525.359C562.4 525.537 562.475 525.688 562.625 525.814C562.816 525.975 563.28 526.142 564.016 526.316C564.752 526.489 565.296 526.67 565.647 526.858C566.001 527.042 566.278 527.296 566.475 527.619C566.676 527.94 566.777 528.337 566.777 528.811C566.777 529.24 566.658 529.643 566.419 530.018C566.18 530.392 565.843 530.672 565.407 530.856C564.97 531.037 564.427 531.127 563.776 531.127C562.828 531.127 562.1 530.909 561.592 530.473C561.084 530.033 560.781 529.394 560.682 528.555ZM570.53 525.564V526.709H569.548V528.898C569.548 529.341 569.557 529.6 569.574 529.675C569.594 529.747 569.637 529.806 569.702 529.854C569.77 529.902 569.852 529.925 569.947 529.925C570.08 529.925 570.273 529.879 570.525 529.787L570.648 530.902C570.314 531.045 569.935 531.117 569.513 531.117C569.253 531.117 569.02 531.074 568.812 530.989C568.604 530.9 568.451 530.788 568.352 530.652C568.256 530.512 568.19 530.324 568.152 530.089C568.122 529.922 568.106 529.585 568.106 529.077V526.709H567.447V525.564H568.106V524.485L569.548 523.647V525.564H570.53ZM574.672 529.266L576.103 529.506C575.919 530.031 575.628 530.432 575.229 530.708C574.834 530.981 574.338 531.117 573.741 531.117C572.797 531.117 572.098 530.808 571.645 530.191C571.287 529.697 571.108 529.073 571.108 528.32C571.108 527.42 571.343 526.716 571.813 526.208C572.284 525.697 572.879 525.441 573.598 525.441C574.406 525.441 575.043 525.709 575.51 526.244C575.977 526.776 576.201 527.592 576.18 528.693H572.58C572.591 529.119 572.707 529.452 572.928 529.69C573.15 529.925 573.426 530.043 573.756 530.043C573.981 530.043 574.171 529.982 574.324 529.859C574.477 529.736 574.593 529.539 574.672 529.266ZM574.754 527.814C574.743 527.398 574.636 527.083 574.431 526.868C574.227 526.65 573.978 526.541 573.685 526.541C573.371 526.541 573.112 526.655 572.908 526.883C572.703 527.112 572.603 527.422 572.606 527.814H574.754ZM580.501 529.266L581.932 529.506C581.748 530.031 581.457 530.432 581.058 530.708C580.663 530.981 580.167 531.117 579.57 531.117C578.626 531.117 577.927 530.808 577.474 530.191C577.116 529.697 576.937 529.073 576.937 528.32C576.937 527.42 577.172 526.716 577.642 526.208C578.113 525.697 578.708 525.441 579.427 525.441C580.235 525.441 580.872 525.709 581.339 526.244C581.806 526.776 582.03 527.592 582.009 528.693H578.409C578.42 529.119 578.536 529.452 578.757 529.69C578.979 529.925 579.255 530.043 579.586 530.043C579.81 530.043 580 529.982 580.153 529.859C580.306 529.736 580.422 529.539 580.501 529.266ZM580.583 527.814C580.572 527.398 580.465 527.083 580.26 526.868C580.056 526.65 579.807 526.541 579.514 526.541C579.2 526.541 578.941 526.655 578.737 526.883C578.532 527.112 578.432 527.422 578.435 527.814H580.583ZM583.185 530.994V523.498H584.622V530.994H583.185ZM589.004 530.994V523.498H591.269L592.629 528.611L593.974 523.498H596.244V530.994H594.838V525.094L593.35 530.994H591.893L590.41 525.094V530.994H589.004ZM597.737 524.828V523.498H599.174V524.828H597.737ZM597.737 530.994V525.564H599.174V530.994H597.737ZM600.652 530.994V523.498H602.089V530.994H600.652ZM603.566 530.994V523.498H605.003V530.994H603.566Z" fill="#060618"/>
<line x1="327.848" y1="131.701" x2="327.848" y2="187.699" stroke="#0081FE" stroke-width="1.31373"/>
<line x1="327.848" y1="319.402" x2="327.848" y2="375.4" stroke="#0081FE" stroke-width="1.31373"/>
<line x1="327.848" y1="375.398" x2="327.848" y2="431.396" stroke="#0081FE" stroke-width="1.31373"/>
<rect x="0.904912" y="432.165" width="143.872" height="121.192" rx="9.68876" fill="white" stroke="#0081FE" stroke-width="1.31373"/>
<rect x="54.9889" y="545.473" width="35.6349" height="17.0785" rx="8.53925" fill="white" stroke="#0081FE" stroke-width="1.31373"/>
<circle cx="72.9842" cy="484.438" r="32.1043" fill="#DFECFA" fill-opacity="0.941176"/>
<circle cx="72.9249" cy="475.899" r="9.44244" fill="#0081FE"/>
<path d="M57.6334 501.658C57.7366 497.782 59.3515 493.241 62.139 490.521C64.9265 487.8 68.6699 486.256 72.5835 486.212C76.497 486.168 80.2764 487.627 83.1283 490.284C85.9802 492.941 87.6829 497.786 87.8788 501.658L72.7562 501.658L57.6334 501.658Z" fill="#0081FE"/>
<path d="M38.2514 523.795H41.2477C41.8408 523.795 42.2822 523.821 42.572 523.872C42.8651 523.92 43.1259 524.022 43.3543 524.179C43.5861 524.335 43.7787 524.545 43.9321 524.808C44.0855 525.067 44.1622 525.358 44.1622 525.682C44.1622 526.033 44.0667 526.355 43.8758 526.648C43.6884 526.941 43.4327 527.161 43.1089 527.308C43.5656 527.441 43.9168 527.667 44.1622 527.988C44.4076 528.308 44.5303 528.685 44.5303 529.118C44.5303 529.459 44.4502 529.791 44.29 530.115C44.1332 530.435 43.9168 530.693 43.6406 530.887C43.3679 531.078 43.0305 531.196 42.6282 531.24C42.376 531.267 41.7675 531.284 40.8028 531.291H38.2514V523.795ZM39.7649 525.043V526.776H40.7568C41.3465 526.776 41.713 526.768 41.8561 526.751C42.1152 526.72 42.318 526.631 42.4646 526.485C42.6146 526.335 42.6896 526.139 42.6896 525.897C42.6896 525.665 42.6248 525.477 42.4953 525.334C42.3692 525.188 42.18 525.099 41.9277 525.068C41.7777 525.051 41.3465 525.043 40.6341 525.043H39.7649ZM39.7649 528.024V530.028H41.1659C41.7113 530.028 42.0573 530.013 42.2038 529.982C42.4288 529.941 42.6112 529.842 42.7509 529.685C42.8941 529.525 42.9657 529.312 42.9657 529.046C42.9657 528.821 42.9112 528.63 42.8021 528.474C42.693 528.317 42.5345 528.203 42.3266 528.131C42.122 528.059 41.6755 528.024 40.9869 528.024H39.7649ZM45.8035 525.125V523.795H47.2403V525.125H45.8035ZM45.8035 531.291V525.861H47.2403V531.291H45.8035ZM48.718 531.291V523.795H50.1548V531.291H48.718ZM51.6325 531.291V523.795H53.0693V531.291H51.6325ZM57.6917 529.563L59.1233 529.803C58.9393 530.328 58.6478 530.729 58.249 531.005C57.8536 531.277 57.3576 531.414 56.7611 531.414C55.8168 531.414 55.118 531.105 54.6647 530.488C54.3067 529.994 54.1278 529.37 54.1278 528.617C54.1278 527.717 54.363 527.013 54.8334 526.505C55.3038 525.994 55.8986 525.738 56.6179 525.738C57.4258 525.738 58.0632 526.006 58.5302 526.541C58.9972 527.073 59.2205 527.889 59.2 528.99H55.6004C55.6106 529.416 55.7265 529.749 55.9481 529.987C56.1696 530.222 56.4457 530.34 56.7764 530.34C57.0014 530.34 57.1906 530.279 57.344 530.156C57.4974 530.033 57.6133 529.835 57.6917 529.563ZM57.7735 528.111C57.7632 527.695 57.6559 527.379 57.4513 527.165C57.2468 526.947 56.998 526.837 56.7048 526.837C56.3912 526.837 56.1321 526.952 55.9276 527.18C55.7231 527.408 55.6225 527.719 55.6259 528.111H57.7735ZM62.8662 525.861V527.006H61.8845V529.195C61.8845 529.638 61.893 529.897 61.91 529.972C61.9305 530.043 61.9731 530.103 62.0379 530.151C62.106 530.198 62.1878 530.222 62.2833 530.222C62.4162 530.222 62.6088 530.176 62.8611 530.084L62.9838 531.199C62.6497 531.342 62.2714 531.414 61.8487 531.414C61.5896 531.414 61.3561 531.371 61.1482 531.286C60.9402 531.197 60.7868 531.085 60.688 530.948C60.5925 530.809 60.5261 530.621 60.4886 530.386C60.4579 530.219 60.4425 529.881 60.4425 529.374V527.006H59.7829V525.861H60.4425V524.782L61.8845 523.943V525.861H62.8662ZM66.4045 528.852L67.8771 528.709C67.9657 529.203 68.1447 529.566 68.414 529.798C68.6867 530.03 69.0531 530.146 69.5133 530.146C70.0008 530.146 70.3672 530.043 70.6127 529.839C70.8615 529.631 70.9859 529.389 70.9859 529.113C70.9859 528.936 70.9331 528.786 70.8274 528.663C70.7251 528.537 70.5445 528.428 70.2854 528.336C70.1082 528.274 69.7042 528.165 69.0736 528.008C68.2623 527.807 67.693 527.56 67.3658 527.267C66.9056 526.854 66.6755 526.352 66.6755 525.759C66.6755 525.377 66.7829 525.021 66.9976 524.69C67.2158 524.356 67.5277 524.102 67.9333 523.928C68.3424 523.754 68.835 523.667 69.4111 523.667C70.3519 523.667 71.0592 523.873 71.533 524.286C72.0103 524.698 72.2608 525.249 72.2847 525.938L70.7712 526.004C70.7064 525.619 70.5666 525.343 70.3519 525.176C70.1405 525.005 69.8218 524.92 69.3957 524.92C68.956 524.92 68.6117 525.01 68.3629 525.191C68.2026 525.307 68.1225 525.462 68.1225 525.656C68.1225 525.834 68.1975 525.985 68.3475 526.111C68.5384 526.272 69.002 526.439 69.7383 526.612C70.4746 526.786 71.0183 526.967 71.3694 527.154C71.7239 527.339 72 527.592 72.1977 527.916C72.3989 528.237 72.4994 528.634 72.4994 529.108C72.4994 529.537 72.3801 529.939 72.1415 530.314C71.9029 530.689 71.5654 530.969 71.1291 531.153C70.6928 531.334 70.1491 531.424 69.498 531.424C68.5503 531.424 67.8226 531.206 67.3147 530.769C66.8067 530.33 66.5034 529.691 66.4045 528.852ZM77.3365 531.291V530.478C77.1388 530.768 76.878 530.996 76.5542 531.163C76.2337 531.33 75.8946 531.414 75.5366 531.414C75.1719 531.414 74.8447 531.334 74.5549 531.173C74.2652 531.013 74.0555 530.788 73.926 530.498C73.7965 530.209 73.7317 529.808 73.7317 529.297V525.861H75.1685V528.356C75.1685 529.12 75.1941 529.588 75.2452 529.762C75.2997 529.933 75.3969 530.069 75.5366 530.171C75.6764 530.27 75.8537 530.32 76.0684 530.32C76.3138 530.32 76.5337 530.253 76.728 530.12C76.9223 529.984 77.0553 529.817 77.1268 529.619C77.1984 529.418 77.2342 528.929 77.2342 528.152V525.861H78.671V531.291H77.3365ZM80.1232 525.861H81.4628V526.658C81.6367 526.386 81.8719 526.164 82.1684 525.994C82.465 525.823 82.7939 525.738 83.1553 525.738C83.7859 525.738 84.3211 525.985 84.7608 526.48C85.2006 526.974 85.4204 527.662 85.4204 528.545C85.4204 529.452 85.1988 530.158 84.7557 530.662C84.3126 531.163 83.7757 531.414 83.1451 531.414C82.8451 531.414 82.5724 531.354 82.3269 531.235C82.0849 531.115 81.8293 530.911 81.56 530.621V533.357H80.1232V525.861ZM81.5446 528.484C81.5446 529.094 81.6656 529.546 81.9077 529.839C82.1497 530.129 82.4445 530.273 82.7922 530.273C83.1263 530.273 83.4041 530.141 83.6257 529.875C83.8473 529.605 83.958 529.166 83.958 528.555C83.958 527.986 83.8439 527.564 83.6155 527.287C83.3871 527.011 83.1041 526.873 82.7667 526.873C82.4156 526.873 82.1241 527.01 81.8923 527.282C81.6605 527.552 81.5446 527.952 81.5446 528.484ZM86.5249 525.861H87.8645V526.658C88.0384 526.386 88.2736 526.164 88.5701 525.994C88.8667 525.823 89.1956 525.738 89.557 525.738C90.1876 525.738 90.7228 525.985 91.1625 526.48C91.6023 526.974 91.8221 527.662 91.8221 528.545C91.8221 529.452 91.6005 530.158 91.1574 530.662C90.7143 531.163 90.1774 531.414 89.5468 531.414C89.2468 531.414 88.9741 531.354 88.7286 531.235C88.4866 531.115 88.231 530.911 87.9617 530.621V533.357H86.5249V525.861ZM87.9463 528.484C87.9463 529.094 88.0673 529.546 88.3094 529.839C88.5514 530.129 88.8462 530.273 89.1939 530.273C89.528 530.273 89.8058 530.141 90.0274 529.875C90.249 529.605 90.3597 529.166 90.3597 528.555C90.3597 527.986 90.2456 527.564 90.0172 527.287C89.7888 527.011 89.5058 526.873 89.1684 526.873C88.8173 526.873 88.5258 527.01 88.294 527.282C88.0622 527.552 87.9463 527.952 87.9463 528.484ZM92.9675 531.291V523.795H94.4043V531.291H92.9675ZM95.882 525.125V523.795H97.3188V525.125H95.882ZM95.882 531.291V525.861H97.3188V531.291H95.882ZM101.941 529.563L103.373 529.803C103.189 530.328 102.897 530.729 102.498 531.005C102.103 531.277 101.607 531.414 101.01 531.414C100.066 531.414 99.3675 531.105 98.9141 530.488C98.5562 529.994 98.3772 529.37 98.3772 528.617C98.3772 527.717 98.6124 527.013 99.0828 526.505C99.5532 525.994 100.148 525.738 100.867 525.738C101.675 525.738 102.313 526.006 102.78 526.541C103.247 527.073 103.47 527.889 103.449 528.99H99.8498C99.86 529.416 99.9759 529.749 100.198 529.987C100.419 530.222 100.695 530.34 101.026 530.34C101.251 530.34 101.44 530.279 101.593 530.156C101.747 530.033 101.863 529.835 101.941 529.563ZM102.023 528.111C102.013 527.695 101.905 527.379 101.701 527.165C101.496 526.947 101.247 526.837 100.954 526.837C100.641 526.837 100.382 526.952 100.177 527.18C99.9725 527.408 99.872 527.719 99.8754 528.111H102.023ZM106.001 531.291H104.564V525.861H105.899V526.633C106.127 526.268 106.332 526.028 106.512 525.912C106.696 525.796 106.904 525.738 107.136 525.738C107.463 525.738 107.779 525.828 108.082 526.009L107.637 527.262C107.395 527.105 107.17 527.027 106.962 527.027C106.761 527.027 106.591 527.083 106.451 527.195C106.311 527.304 106.2 527.504 106.119 527.794C106.04 528.083 106.001 528.69 106.001 529.614V531.291Z" fill="#060618"/>
<line x1="583.09" y1="375.979" x2="583.09" y2="431.976" stroke="#0081FE" stroke-width="1.31373"/>
<path d="M583.734 375.398L72.8398 375.398" stroke="#0081FE" stroke-width="1.31373"/>
<defs>
<clipPath id="clip0_276_2948">
<rect width="63.8438" height="63.5169" fill="white" transform="translate(296.147 208.781)"/>
</clipPath>
</defs>
</svg>
